# xmcd
#
# Track frame offsets: 
#        150
#        20974
#        52098
#        78391
#        102881
#        136478
#        167796
#        191357
#
# Disc length: 2823 seconds
#
# Revision: 4
# Processed by: cddbd v1.5.2PL0 Copyright (c) Steve Scherf et al.
# Submitted via: ExactAudioCopy v0.99pb5
#
DISCID=6b0b0508
DTITLE=Edwin Bonilla - Edwin Y Su Son
DYEAR=1999
DGENRE=Salsa
TTITLE0=La Islas del Sabor
TTITLE1=Sí te Vas No Me Muero
TTITLE2=Si Te Busco En El Baile
TTITLE3=Consulta en Guanabacoa
TTITLE4=Carmen la Ronca
TTITLE5=Son de Mi Tierra
TTITLE6=Mi Son
TTITLE7=Sí tu No Vienes No Bailas
EXTD=YEAR: 1999
EXTT0=
EXTT1=
EXTT2=
EXTT3=
EXTT4=
EXTT5=
EXTT6=
EXTT7=
PLAYORDER=
